# xmcd
#
# Track frame offsets: 
#        150
#        450
#        14027
#        32485
#        58031
#        72530
#        86197
#        103943
#        123734
#        145766
#        165142
#        180007
#        187468
#
# Disc length: 2764 seconds
#
# Revision: 0
# Processed by: cddbd v1.5.2PL0 Copyright (c) Steve Scherf et al.
# Submitted via: ExactAudioCopy v1.3
#
DISCID=b10aca0d
DTITLE=Big Daddy Wilson - Neckbone Stew
DYEAR=2017
DGENRE=Blues
TTITLE0=Cross Creek Road
TTITLE1=7 Years
TTITLE2=Neckbone Stew
TTITLE3=I Just Need A Smile
TTITLE4=Tom Cat
TTITLE5=He'll Make A Way
TTITLE6=Give Me One Reason
TTITLE7=Running Shoes
TTITLE8=My Babe
TTITLE9=Damn If I Do
TTITLE10=Cookies Gonna Kill Me
TTITLE11=The River
TTITLE12=Peanut Butter Pic
EXTD=
EXTT0=
EXTT1=
EXTT2=
EXTT3=
EXTT4=
EXTT5=
EXTT6=
EXTT7=
EXTT8=
EXTT9=
EXTT10=
EXTT11=
EXTT12=
PLAYORDER=
